<svg width="17" height="20" viewBox="0 0 17 20" fill="none" xmlns="http://www.w3.org/2000/svg">
<path d="M0.842846 15.1C1.27535 16.0575 1.4816 16.485 2.0391 17.3313C2.81535 18.5125 3.9091 19.985 5.26535 19.9975C6.47035 20.0088 6.78035 19.2138 8.41535 19.2225C10.0503 19.2313 10.3928 20.0113 11.5978 20C12.9541 19.9875 13.9903 18.6588 14.7678 17.4763C16.9378 14.1713 17.1653 10.2938 15.8266 8.2325C14.8753 6.76625 13.3741 5.91 11.9616 5.91C10.5241 5.91 9.6216 6.6975 8.43285 6.6975C7.28035 6.6975 6.57785 5.90875 4.91535 5.90875C3.6591 5.90875 2.32785 6.5925 1.38035 7.77375C4.4866 9.4775 3.9816 13.9138 0.842846 15.1Z" fill="#FDCC0C"/>
<path d="M11.005 3.37375C11.6875 2.49875 12.205 1.2625 12.0162 0C10.9025 0.07625 9.59998 0.785 8.83873 1.70875C8.14873 2.5475 7.57873 3.79125 7.79998 5C9.01623 5.0375 10.2737 4.31125 11.005 3.37375Z" fill="#FDCC0C"/>
</svg>
