<svg width="60" height="60" viewBox="0 0 52 52" fill="none" xmlns="http://www.w3.org/2000/svg">
<path d="M40.9174 10.423C43.5556 10.423 45.6942 8.26545 45.6942 5.60392C45.6942 2.94239 43.5556 0.78479 40.9174 0.78479C38.2792 0.78479 36.1406 2.94239 36.1406 5.60392C36.1406 8.26545 38.2792 10.423 40.9174 10.423Z" fill="#020203"/>
<mask id="mask0" style="mask-type:alpha" maskUnits="userSpaceOnUse" x="0" y="-6" width="58" height="58">
<path d="M28.5982 51.7027C44.3925 51.7027 57.1963 38.7855 57.1963 22.8514C57.1963 6.91719 44.3925 -6 28.5982 -6C12.8038 -6 0 6.91719 0 22.8514C0 38.7855 12.8038 51.7027 28.5982 51.7027Z" fill="#FF0101"/>
</mask>
<g mask="url(#mask0)">
<path d="M39.5346 23.422C39.8489 23.9293 40.4146 24.2463 41.0431 24.2463C41.3574 24.2463 41.6716 24.1829 41.9859 23.9927L50.5968 18.7931C51.4767 18.2858 51.7281 17.1445 51.2253 16.3201C50.7225 15.4324 49.5911 15.1788 48.774 15.686L41.6088 19.9979L38.1519 13.2131C37.2091 12.2619 36.1406 11.3108 35.0721 10.4865L24.827 5.28687C24.1356 4.96982 23.3814 5.03323 22.8157 5.54051L14.2677 13.3399C13.5134 14.0374 13.4506 15.1788 14.142 15.8763C14.8334 16.6372 15.9647 16.7006 16.6561 16.0031L24.387 9.02804L29.7295 11.7546L20.553 26.0852L-0.377096 51.0686C-1.19419 52.0197 -1.13133 53.5415 -0.125684 54.3659C0.817112 55.1902 2.32559 55.1268 3.14268 54.1122L23.4442 30.4605L32.1808 32.4896L26.2098 41.9376C25.5812 43.079 25.9584 44.474 27.0897 45.1081C28.0954 45.6788 29.4153 45.4251 30.1067 44.4106L37.7747 32.1725C38.2147 31.5384 38.2776 30.7141 38.0261 30.0166C37.7119 29.3191 37.1462 28.8118 36.392 28.685L29.6667 27.0998L35.7634 17.4615L39.5346 23.422Z" fill="#020203"/>
</g>
</svg>
